<?xml version="1.0" encoding="utf-8"?>
<!-- Generator: Adobe Illustrator 15.0.0, SVG Export Plug-In . SVG Version: 6.00 Build 0)  -->
<!DOCTYPE svg PUBLIC "-//W3C//DTD SVG 1.1//EN" "http://www.w3.org/Graphics/SVG/1.1/DTD/svg11.dtd">
<svg version="1.1" id="Capa_1" xmlns="http://www.w3.org/2000/svg" xmlns:xlink="http://www.w3.org/1999/xlink" x="0px" y="0px"
	 width="438.549px" height="438.549px" viewBox="0 0 438.549 438.549" enable-background="new 0 0 438.549 438.549"
	 xml:space="preserve">
<g>
	<path d="M243.921,204.979c-2.55-4.37-6.01-7.83-10.379-10.38c-4.37-2.55-9.142-3.825-14.316-3.825
		c-5.174,0-9.946,1.276-14.315,3.825c-4.37,2.55-7.83,6.011-10.38,10.38c-2.551,4.37-3.825,9.142-3.825,14.315
		c0,6.215,1.813,11.803,5.44,16.767c3.626,4.964,8.312,8.398,14.056,10.305c0.669,0.124,1.163,0.037,1.485-0.26
		c0.322-0.296,0.482-0.668,0.482-1.113c0-0.074-0.007-0.742-0.019-2.005c-0.013-1.263-0.02-2.365-0.02-3.305l-0.854,0.148
		c-0.544,0.099-1.231,0.141-2.061,0.13c-0.829-0.013-1.689-0.099-2.581-0.261c-0.892-0.16-1.721-0.532-2.488-1.113
		c-0.768-0.582-1.312-1.343-1.634-2.283l-0.371-0.854c-0.248-0.57-0.638-1.201-1.17-1.894c-0.532-0.693-1.07-1.164-1.615-1.411
		l-0.26-0.187c-0.174-0.124-0.334-0.273-0.482-0.446c-0.149-0.172-0.261-0.346-0.334-0.52c-0.074-0.174-0.014-0.316,0.185-0.428
		c0.198-0.112,0.557-0.167,1.078-0.167l0.742,0.111c0.495,0.1,1.107,0.396,1.838,0.892c0.73,0.496,1.33,1.139,1.801,1.931
		c0.57,1.015,1.256,1.789,2.062,2.321c0.804,0.533,1.614,0.799,2.432,0.799s1.522-0.062,2.117-0.186
		c0.595-0.124,1.151-0.31,1.672-0.557c0.222-1.66,0.828-2.936,1.819-3.826c-1.412-0.148-2.68-0.372-3.808-0.669
		c-1.125-0.298-2.29-0.779-3.489-1.448c-1.201-0.668-2.199-1.498-2.991-2.488s-1.441-2.291-1.948-3.899
		c-0.508-1.609-0.762-3.466-0.762-5.57c0-2.997,0.979-5.547,2.934-7.65c-0.916-2.253-0.829-4.778,0.261-7.575
		c0.718-0.223,1.783-0.056,3.193,0.501c1.411,0.557,2.444,1.035,3.102,1.43c0.655,0.395,1.182,0.73,1.578,1.002
		c2.302-0.644,4.68-0.964,7.13-0.964s4.828,0.321,7.131,0.964l1.411-0.891c0.966-0.594,2.104-1.139,3.417-1.634
		c1.311-0.495,2.315-0.631,3.008-0.408c1.114,2.797,1.213,5.323,0.297,7.575c1.956,2.105,2.935,4.655,2.935,7.65
		c0,2.104-0.255,3.968-0.762,5.59c-0.508,1.621-1.163,2.921-1.967,3.899c-0.806,0.979-1.809,1.801-3.009,2.469
		c-1.201,0.669-2.365,1.15-3.492,1.448c-1.127,0.297-2.395,0.521-3.806,0.669c1.288,1.114,1.931,2.872,1.931,5.273v7.835
		c0,0.445,0.154,0.817,0.465,1.114c0.31,0.296,0.798,0.383,1.467,0.26c5.744-1.906,10.43-5.341,14.056-10.306
		c3.627-4.964,5.44-10.552,5.44-16.767C247.746,214.121,246.471,209.349,243.921,204.979z"/>
</g>
</svg>
