<?xml version="1.0" encoding="UTF-8"?>
<svg width="68px" height="68px" viewBox="0 0 68 68" version="1.1" xmlns="http://www.w3.org/2000/svg" xmlns:xlink="http://www.w3.org/1999/xlink">
    <!-- Generator: Sketch 46 (44423) - http://www.bohemiancoding.com/sketch -->
    <title>twitter</title>
    <desc>Created with Sketch.</desc>
    <defs></defs>
    <g id="Page-1" stroke="none" stroke-width="1" fill="none" fill-rule="evenodd">
        <g id="twitter" fill-rule="nonzero" fill="#FFFFFF">
            <path d="M34.47328,0.21352 C15.97728,0.21352 0.98328,15.21024 0.98328,33.70352 C0.98328,52.19952 15.97728,67.1908 34.47328,67.1908 C52.96928,67.1908 67.96056,52.19952 67.96056,33.70352 C67.96056,15.21024 52.96792,0.21352 34.47328,0.21352 Z M51.34272,26.95112 C51.3604,27.31288 51.3672,27.676 51.3672,28.0432 C51.3672,39.19656 42.87808,52.05536 27.35504,52.05536 C22.5896,52.05536 18.15192,50.65864 14.41736,48.26504 C15.07832,48.34256 15.7488,48.382 16.43016,48.382 C20.38504,48.382 24.0244,47.03288 26.91168,44.76984 C23.21928,44.70048 20.10352,42.25928 19.02912,38.90688 C19.5432,39.00752 20.07224,39.05784 20.61624,39.05784 C21.386,39.05784 22.13128,38.9572 22.83984,38.76272 C18.97744,37.98752 16.0684,34.57392 16.0684,30.48848 C16.0684,30.45176 16.0684,30.4164 16.06976,30.37968 C17.20672,31.01208 18.50824,31.39152 19.89272,31.4364 C17.62696,29.92 16.13776,27.34008 16.13776,24.41064 C16.13776,22.86432 16.55392,21.4132 17.28016,20.16744 C21.44312,25.27288 27.6624,28.63344 34.67728,28.98432 C34.53312,28.36824 34.45832,27.72224 34.45832,27.06128 C34.45832,22.40192 38.2364,18.62248 42.89848,18.62248 C45.32608,18.62248 47.5184,19.64792 49.05792,21.28672 C50.98096,20.91 52.78704,20.20552 54.41768,19.23856 C53.78528,21.21056 52.4484,22.86432 50.70488,23.90744 C52.4144,23.70344 54.04096,23.2492 55.55328,22.57872 C54.42448,24.27464 52.9924,25.76112 51.34272,26.95112 Z" id="Shape"></path>
        </g>
    </g>
</svg>