<?xml version="1.0" encoding="UTF-8"?>
<svg width="827px" height="828px" viewBox="0 0 827 828" version="1.1" xmlns="http://www.w3.org/2000/svg" xmlns:xlink="http://www.w3.org/1999/xlink">
    <!-- Generator: Sketch 46 (44423) - http://www.bohemiancoding.com/sketch -->
    <title>Group</title>
    <desc>Created with Sketch.</desc>
    <defs></defs>
    <g id="Page-1" stroke="none" stroke-width="1" fill="none" fill-rule="evenodd">
        <g id="Group">
            <circle id="Oval" fill="#FFFFFF" cx="425.5" cy="401.5" r="401.5"></circle>
            <path d="M621.307734,166.559188 C624.720959,171.20064 626.008834,178.077142 627,185.265667 C621.993652,186.735249 617.053477,188.274418 614.192402,192 C607.7637,186.391798 603.661711,173.688602 610.634736,165.810929 C617.293264,163.326709 616.223118,167.424176 621.307734,166.559188" id="Fill-3" fill="#212121"></path>
            <path d="M622.651742,201 C624.737145,201.062139 625.013594,202.804202 624.999508,204.815534 C621.800677,205.826105 621.415643,202.420469 622.651742,201" id="Fill-9" fill="#212121"></path>
            <path d="M622.133972,210 C626.170355,212.7643 622.848376,222.9234 619.791663,224 C617.425931,220.4762 621.008492,213.815 622.133972,210" id="Fill-11" fill="#212121"></path>
            <path d="M364.255319,329.748421 C350.896489,336.870939 338.426064,325.384533 330,318.98933 C330.104255,316.93793 333.106064,317.677438 335.212766,317.554784 C340.083723,310.330413 352.335213,312.952045 359.042553,316.837512 C360.146915,320.077432 362.235,322.369836 365,324.010239 C363.848723,325.053153 364.344681,327.682675 364.255319,329.748421" id="Fill-15" fill="#212121"></path>
            <path d="M421.875653,319.315196 C422.349616,322.278603 421.383433,323.64052 420.415058,325 C415.882101,324.355993 411.650027,323.377395 408,321.751541 C409.716199,316.936512 418.313262,315.186405 421.875653,319.315196" id="Fill-17" fill="#212121"></path>
            <path d="M478.133724,394 C470.518192,393.604995 469.037143,387.500301 465.320577,383.475876 C459.303673,384.503732 456.380768,381.11777 451,380.669442 C457.111118,371.514857 472.3256,371.142303 483.409726,376.459793 C486.002504,383.812648 479.282385,387.863032 478.133724,394" id="Fill-21" fill="#212121"></path>
            <path d="M649.691799,542 C646.817631,541.2035 647.508077,536.4335 647,533 C649.032981,534.26975 653.087503,539.4605 649.691799,542 Z" id="Fill-27" fill="#212121"></path>
            <path d="M651,531 C646.906636,526.928908 645.69,520.470964 642,516.065197 C650.153182,514.979708 649.461,527.763221 651,531 Z" id="Fill-41" fill="#212121"></path>
            <path d="M256.078684,631.333333 C254.060347,626.8886 249.578744,632.4348 245.06557,632.066667 C244.604488,641.506867 255.914222,637.348867 256.078684,631.333333 Z M239.926117,387.866667 C238.597935,386.915533 236.218368,388.5252 234.052456,387.133333 C233.887259,389.742533 234.547312,391.527467 236.255079,392.266667 C237.244056,390.566067 238.340963,388.972533 239.926117,387.866667 Z M297.928517,228 C286.959456,222.9158 268.068294,224.478533 261.952345,233.866667 C260.016974,244.1128 258.924473,261.4818 270.028628,266.133333 C270.116733,268.245333 269.627751,270.933733 270.762836,272 C312.816779,283.819867 354.271609,257.339933 343.449389,216.266667 C335.003064,218.5862 326.799763,221.147733 319.954745,225.066667 C311.797699,224.912667 304.344758,225.556533 297.928517,228 Z M467.530473,203.8 C464.978367,199.015733 466.103173,190.558933 461.656812,187.666667 C453.82502,192.546267 458.581951,206.2024 467.530473,203.8 Z M497.632985,186.2 C497.82241,179.768667 487.740271,179.778933 491.025116,186.933333 C493.204979,187.932133 496.345919,187.993733 497.632985,186.2 Z M281.041742,142.2 C296.547473,145.967133 319.985582,153.7214 336.107313,154.666667 C334.830526,150.075267 331.504565,147.5306 325.828406,147.333333 C325.866585,141.428533 317.929067,143.489933 317.752123,137.8 C305.792615,137.579267 294.525465,129.7084 280.307535,134.866667 C278.090228,137.170067 285.100442,140.219267 281.041742,142.2 Z M100.34375,659.933333 C13.0234375,568.232292 0.171875,518.381842 0.171875,379.8 C0.171875,241.218158 90.53125,131.2 159.90625,82.8 C229.28125,34.4 261.218137,17.640625 262.686552,17.640625 C264.154968,17.640625 314.929101,44.6666667 308.941631,63.7333333 C302.954162,82.8 293.382304,78.9925333 281.77595,82.8 C280.090209,89.488 272.702613,94.1879333 272.965459,100.4 C288.861788,106.818867 305.749297,105.425533 322.891576,111.4 C333.892942,115.2346 344.016197,118.623333 347.854634,127.533333 C350.067536,132.6696 353.966178,135.968133 355.19671,140 C356.422837,144.018667 354.969106,146.305933 355.19671,149.533333 C356.069683,151.594733 359.709884,150.892933 360.336163,153.2 C362.115883,160.955733 368.955761,163.658067 372.083485,170.066667 C391.247038,177.661067 404.301249,173.542667 419.072771,166.4 C428.387663,161.895867 437.93383,159.1114 438.896377,149.533333 C435.002874,148.635733 429.171797,150.128067 427.149055,145.866667 C427.765055,140.126133 430.917008,136.918533 432.288508,131.933333 C448.8258,124.295667 482.517853,120.7214 499.1014,129.733333 C499.604332,132.101267 499.860571,134.8674 499.1014,137.8 C481.061185,142.849 457.173006,144.832667 443.301622,151.733333 C444.602638,156.7882 451.201696,155.8224 455.048944,156.133333 C464.237552,156.875467 473.57447,155.994733 484.417248,156.866667 C523.79427,160.033933 566.413553,172.524067 596.751011,184.733333 C596.205494,190.3448 598.052761,198.970267 596.016803,205.266667 C594.889794,208.751467 590.045493,211.285867 587.94052,214.8 C582.105038,224.542333 579.945733,238.576133 575.45899,250 C570.810722,261.834533 564.308579,273.7556 557.1038,280.066667 C555.001764,281.9088 550.531174,286.4738 546.824894,282.266667 C554.025268,274.5476 561.448841,267.051467 567.382707,258.066667 C571.358441,241.227133 577.616092,225.261 575.45899,206 C572.235819,177.222533 539.298532,171.6558 508.646099,169.333333 C499.962625,168.675533 491.757121,168.449667 484.417248,171.533333 C493.489117,171.760667 498.958964,175.5872 507.177683,176.666667 C515.638692,182.729867 530.806687,186.3958 532.874949,195 C530.8735,199.449133 524.612177,194.334867 519.659213,195 C516.704027,187.684267 510.945637,183.169867 500.569815,183.266667 C499.038258,193.470267 495.916407,202.085467 491.759324,209.666667 C482.741786,213.767467 472.947457,210.069267 463.859435,208.2 C454.911647,206.359333 444.046843,207.259133 438.162169,201.6 C437.430898,197.447133 440.361855,196.952867 439.630584,192.8 C431.015392,193.075 430.031554,183.549733 430.085885,177.4 C395.688259,186.815267 410.613966,243.1976 425.68064,262.466667 C443.248759,284.935267 482.250601,294.055733 521.127628,289.6 C529.452074,288.645933 536.728805,282.475667 544.622271,285.933333 C534.855107,295.1748 509.875162,296.711867 488.822493,297.666667 C484.522974,297.861733 479.737409,298.057533 475.606757,297.666667 C452.958655,295.523133 442.328063,286.629267 430.820093,275.666667 C428.145375,275.893267 426.04187,275.550067 424.212225,274.933333 C417.640332,265.682333 413.517757,256.955667 407.32545,245.6 C404.495814,240.4102 390.8234,220.715067 393.375505,212.6 C394.157436,210.113267 399.632423,208.306333 399.983374,205.266667 C400.896728,197.353267 390.923986,196.133 385.299222,195.733333 C381.327159,198.1218 380.076069,203.227267 380.159769,209.666667 C370.590841,226.0508 359.650413,243.108867 352.25988,260.266667 C349.464017,266.758133 349.189424,275.195867 345.652011,280.066667 C342.552921,284.3332 335.564733,285.857067 331.702067,290.333333 C325.726351,297.2582 323.973798,305.945267 325.094199,316 C320.92757,315.970667 313.912951,314.096267 309.675839,315.266667 C309.040015,311.942467 313.343206,313.5514 313.346877,310.866667 C309.930609,306.131533 308.346189,303.0486 311.144254,296.933333 C301.338177,294.042533 289.75385,295.255467 275.902289,295.466667 C270.756962,300.288333 272.677649,307.2022 271.497044,314.533333 C273.921397,320.178533 278.232664,323.939067 280.307535,329.933333 C288.205406,328.400667 288.201735,334.760133 292.054856,337.266667 C295.404312,338.401867 295.160555,336.688067 298.662725,336.533333 C299.695021,338.4356 299.680337,341.3836 300.865348,343.133333 C306.285268,342.119867 306.935042,345.870867 309.675839,347.533333 C312.087711,347.760667 315.687531,349.2288 317.752123,347.533333 C319.097191,353.8972 324.071447,351.752933 330.233652,353.4 C331.089004,353.6288 332.716008,356.142667 333.170482,356.333333 C336.835646,357.869667 343.657169,356.3348 341.980973,362.2 C338.625645,363.094667 339.372334,357.6878 336.84152,360 C335.43331,370.504267 349.80469,365.3394 359.601956,365.866667 C366.892637,366.259 374.55703,371.330733 380.159769,371.733333 C388.993754,372.3684 398.973838,368.522067 402.185997,375.4 C404.732229,380.853067 400.31083,386.557667 397.046543,390.066667 C393.286666,386.244533 387.574531,384.3716 384.565014,379.8 C383.990864,377.990133 387.231656,374.723867 383.830807,374.666667 C383.954153,373.0768 381.226572,374.334467 380.159769,373.933333 C376.865379,377.545733 382.077519,382.515533 383.096599,386.4 C384.881458,388.773067 391.385069,386.433 391.172883,390.8 C382.059898,396.402667 371.095242,390.4788 361.070371,390.8 C358.01827,390.897533 355.175418,392.2938 352.25988,392.266667 C346.486071,392.2124 342.084497,388.630067 336.84152,388.6 C336.235799,397.515867 344.83337,397.2394 350.057257,400.333333 C352.686454,405.197533 356.40595,409.807267 357.399333,414.266667 C362.330271,411.3634 366.948437,417.058467 372.083485,417.2 C374.604754,417.269667 376.910166,415.1474 379.425561,415 C388.422541,414.472733 392.300625,421.389533 398.514959,424.533333 C402.675713,426.638 408.041302,425.3884 408.793865,430.4 C397.950353,442.224267 369.630497,438.188 357.399333,431.133333 C353.300986,434.918067 348.754038,433.083267 345.652011,431.866667 C345.325289,435.4512 342.340735,436.3818 341.246766,439.2 C346.520579,465.954933 373.318422,475.120867 384.565014,493.466667 C342.609455,464.727333 310.747782,425.9076 262.686552,403.266667 C259.850309,403.411133 257.276177,403.293067 255.344476,402.533333 C255.68368,396.4562 249.467879,393.405533 243.597155,395.933333 C242.447386,400.4624 245.161017,406.271867 249.470816,407.666667 C247.970095,429.124733 256.254894,446.0662 262.686552,461.933333 C264.295201,463.504133 266.765076,464.214733 267.826006,466.333333 C274.643123,482.991 286.724509,494.390667 294.991687,509.6 C296.212674,522.169333 303.360919,530.729533 301.599555,542.6 C299.079755,559.580333 275.008024,560.9524 273.699666,582.2 C273.063108,592.5444 275.625493,599.789 270.762836,611.533333 C262.04045,612.598867 256.989101,617.331067 254.610269,624.733333 C255.188824,628.311267 260.805513,626.857067 262.686552,629.133333 C261.245303,634.048867 258.12125,637.284333 256.812892,642.333333 C252.054492,641.7364 249.49945,643.339467 246.533985,644.533333 C249.072875,648.8424 251.248332,653.513 251.673438,659.933333 C248.095645,661.493867 247.009752,665.541133 243.597155,667.266667 C246.415778,670.8072 248.355554,675.225533 250.939231,679 C248.555259,678.574667 247.523697,679.4994 245.799778,679.733333 C236.477544,706.600467 224.313926,730.628133 213.494643,756 C196.274256,753.089583 158.557292,721.067361 100.34375,659.933333 Z" id="Fill-43" fill="#212121"></path>
            <path d="M359.497465,644.684783 C353.321816,638.451863 342.989536,644.216087 333.875402,644.684783 C338.669656,652.343563 352.568527,646.073293 359.497465,644.684783 Z M375.602762,648.346467 C374.359726,646.172159 373.031771,644.083534 372.674527,641.023098 C362.438146,640.664253 356.413301,651.10811 359.497465,659.331522 C367.057438,659.004899 372.96735,655.446474 375.602762,648.346467 Z M377.798939,635.164402 C380.344308,641.16151 377.831882,652.219065 382.191293,656.402174 C387.685395,650.858383 388.245421,635.794212 377.798939,635.164402 Z M666.230167,504.076087 C666.555202,516.728673 666.467355,528.987261 672.086639,537.763587 C670.760148,525.908516 668.697206,514.790177 666.230167,504.076087 Z M601.07692,346.623641 C601.088633,348.565067 600.670628,350.935641 602.541038,351.017663 C602.098143,349.507584 603.721849,345.930118 601.07692,346.623641 Z M346.686434,804.34375 C349.354789,777.475772 365.06697,705.425542 368.282173,679.10462 C351.646865,670.643198 326.210745,677.414386 301.664808,679.10462 C298.041848,679.354346 294.749047,678.739916 292.148042,679.10462 C286.299623,679.924837 282.351629,689.644413 277.506862,682.766304 C278.372156,678.993304 284.530236,680.515833 287.755688,679.10462 C286.798155,673.715352 275.736744,678.434531 274.578627,673.245924 C273.031786,666.635118 274.956369,659.072274 276.042745,652.008152 C277.116675,645.026052 276.886808,637.147571 280.435098,632.235054 C286.336958,634.015365 292.011879,632.998149 298.004513,632.967391 C320.922351,632.85095 341.841667,642.40575 365.353937,640.290761 C368.115995,637.447829 361.127761,636.54266 363.889819,633.699728 C367.596966,631.592063 371.816553,631.119705 377.06688,632.235054 C383.344286,626.737401 384.784978,617.48945 388.047765,608.800272 C391.036761,600.838304 395.758542,592.534336 398.29659,583.900815 C400.77461,575.473082 401.975186,564.969173 404.153062,555.339674 C406.401947,545.39527 410.194744,535.534353 410.741592,526.778533 C411.428996,515.757594 411.577604,506.419565 415.866005,496.752717 C465.484961,489.201591 505.096671,467.150193 534.459556,438.165761 C561.922015,411.057576 581.481166,375.266072 588.631918,329.047554 C592.244629,305.697723 592.423252,285.458859 602.541038,268.995924 C613.587808,263.526832 611.349904,245.183255 617.914276,234.576087 C619.619242,231.821035 623.077488,230.334391 624.502807,227.985054 C626.912745,224.012859 626.020365,218.601621 631.091338,217 C633.669649,228.655875 635.234791,241.628492 636.21575,254.349185 C636.837268,262.400497 637.629356,271.469758 636.947809,279.248641 C635.304337,298.016973 630.220187,314.249221 624.502807,329.047554 C624.735602,331.474519 626.768529,326.19144 627.431043,329.047554 C626.512309,335.452573 623.684365,339.945461 620.842512,344.42663 C617.96186,344.866765 621.028455,339.358126 617.914276,340.032609 C617.288366,344.190818 620.1412,351.294486 615.7181,354.679348 C613.97946,354.221637 615.831569,350.171814 614.253982,349.552989 C611.1991,350.647101 610.518285,354.116181 606.933392,354.679348 C606.38142,362.840511 593.857355,367.660753 599.612803,375.184783 C601.248222,371.450596 601.092294,365.924382 606.201333,365.664402 C608.612735,375.349558 600.507379,383.377436 601.07692,392.028533 C601.338998,396.009516 605.890208,398.001473 604.005156,403.013587 C605.679375,404.756549 609.0732,404.778519 609.861628,407.407609 C606.038084,416.989505 609.598819,425.713103 609.861628,436.701087 C610.723993,439.500079 614.33524,439.549145 615.7181,441.827446 C617.466256,444.93109 617.658056,449.325111 614.986041,451.347826 C616.416484,456.74222 619.404016,463.692098 618.646335,468.923913 C625.798551,476.762848 627.836603,486.43409 629.62722,498.949728 C632.122077,516.38301 642.276466,531.617083 647.196635,545.819293 C647.957244,547.499274 652.424268,545.472166 653.053106,547.283967 C648.315221,550.686405 653.766864,552.209666 654.517224,556.072011 C652.127784,565.427615 657.446192,578.745163 662.569873,585.365489 C663.302664,572.791996 655.145331,563.554298 663.301932,555.339674 C667.696482,554.055155 670.364104,554.504077 673.550757,553.875 C673.880916,550.373697 673.880916,550.78527 673.550757,547.283967 C671.167905,547.470713 668.0691,549.664063 665.498108,545.819293 C664.484939,537.185773 665.306309,521.379745 659.641637,515.061141 C660.123332,512.867792 661.206779,515.761255 662.569873,515.061141 C661.296822,505.08598 650.96381,495.759668 658.909578,487.232337 C650.229555,488.498548 655.514288,480.330061 650.856929,477.711957 C647.695167,481.877489 655.514288,484.562236 652.321047,488.697011 C647.43309,485.531118 646.287417,478.621519 645.732517,471.120924 C648.571441,474.218709 650.719302,475.43805 655.249283,475.514946 C655.211216,467.589595 644.923592,462.61776 649.392811,455.009511 C656.627018,457.292938 656.847368,466.592885 660.373696,472.585598 C659.788781,474.929808 658.211194,476.28097 658.177519,479.17663 C662.132833,485.961 663.798268,495.035387 666.962226,502.611413 C665.05082,485.089519 660.665055,468.023139 664.76605,449.883152 C667.782864,448.977984 670.678158,444.104281 675.014875,446.953804 C675.361139,451.694221 672.027342,452.753181 672.818698,457.938859 C676.681041,458.288916 680.726399,449.994467 685.995759,453.544837 C688.901301,477.882591 678.565361,505.58763 683.799582,527.51087 C695.189688,505.462401 704.837493,481.669505 725.526943,468.923913 C728.07158,470.528463 732.141827,470.606091 735.043709,471.853261 C725.356373,490.738034 706.570276,510.52944 715.278117,540.692935 C713.462611,544.003098 713.489697,549.155821 712.349882,553.142663 C715.587778,556.721594 716.625838,560.397193 713.813999,565.592391 C715.323505,567.988598 717.275174,569.941008 719.670471,571.451087 C717.447208,574.841075 714.674901,577.683274 713.081941,581.703804 C713.438453,585.008841 717.61485,584.492543 718.206353,587.5625 C716.649996,605.279196 721.032101,620.244501 726.991061,633.699728 C733.065686,634.457697 736.898747,637.458814 737.971945,643.220109 C740.455821,643.417107 740.481443,639.225943 743.096358,641.755435 C742.572203,645.789879 741.047325,646.901567 742.364299,651.275815 C743.116123,653.453053 747.092668,652.404346 747.488711,654.9375 C746.033378,661.386459 749.584596,663.067905 751.149006,668.119565 C752.202439,681.148572 756.005485,693.174277 754.077242,708.398098 C757.947638,712.730603 753.822485,721.273314 759.201655,725.241848 C756.998889,731.610982 753.326882,739.493857 756.273419,747.211957 C758.109423,752.019016 763.856818,751.257386 761.397832,756 L726.991061,756 C727.560603,753.019389 728.191637,744.214501 724.794884,742.817935 C719.425231,745.281516 725.417866,752.715469 726.259002,756 C703.667594,775.18027 686.586218,787.490166 675.014875,792.929688 C630.01425,814.083831 595.685728,825.945312 567.359375,825.945312 C545.672708,825.945312 510.439316,830.033822 474.257812,825.945312 C450.661849,823.278969 408.138056,816.078448 346.686434,804.34375 Z" id="Fill-45" fill="#212121"></path>
        </g>
    </g>
</svg>