<?xml version="1.0" encoding="UTF-8"?>
<svg width="586px" height="586px" viewBox="0 0 586 586" version="1.1" xmlns="http://www.w3.org/2000/svg" xmlns:xlink="http://www.w3.org/1999/xlink">
    <!-- Generator: Sketch 46 (44423) - http://www.bohemiancoding.com/sketch -->
    <title>Page 1</title>
    <desc>Created with Sketch.</desc>
    <defs></defs>
    <g id="Page-1" stroke="none" stroke-width="1" fill="none" fill-rule="evenodd">
        <g>
            <path d="M106.661659,71.9113352 C106.80952,76.6641156 113.442433,74.9422358 113.410529,79.8744936 C118.153758,80.0392697 120.933065,82.1648204 122,86 C108.528028,85.2104222 88.9421933,78.7333117 75.9849761,75.5866391 C79.3765901,73.9321398 73.5185708,71.3851542 75.3714425,69.4611326 C87.2525216,65.1524514 96.667809,71.7269575 106.661659,71.9113352" id="Fill-1" fill="#FFFFFF"></path>
            <path d="M359.161574,98.2704497 C362.062815,102.052373 363.157509,107.655449 364,113.512766 C359.744605,114.710202 355.545456,115.96434 353.113542,119 C347.649145,114.430354 344.162454,104.079601 350.089526,97.6607571 C355.749275,95.6365775 354.83965,98.9752545 359.161574,98.2704497" id="Fill-3" fill="#000000"></path>
            <path d="M255.997822,111.84011 C254.935452,113.295821 252.342859,113.24583 250.543557,112.43525 C247.832182,106.62907 256.154177,106.620738 255.997822,111.84011" id="Fill-5" fill="#FFFFFF"></path>
            <path d="M231,126.760356 C223.718041,128.809398 219.847036,117.161882 226.220244,113 C229.838519,115.466856 228.923196,122.679785 231,126.760356" id="Fill-7" fill="#FFFFFF"></path>
            <path d="M360.651742,124 C362.737145,124.062139 363.013594,125.804202 362.999508,127.815534 C359.800677,128.826105 359.415643,125.420469 360.651742,124" id="Fill-9" fill="#000000"></path>
            <path d="M360.133972,132 C364.170355,134.3694 360.848376,143.0772 357.791663,144 C355.425931,140.9796 359.008492,135.27 360.133972,132" id="Fill-11" fill="#000000"></path>
            <path d="M127.556085,137 C136.523842,171.366133 102.172588,193.521978 67.3248837,183.632258 C66.3843035,182.740109 66.7894952,180.490716 66.7164877,178.723599 C57.5151069,174.831646 58.4204002,160.298948 60.024132,151.725976 C65.0920705,143.870895 80.746099,142.563351 89.8355349,146.817317 C95.1523073,144.772861 101.328135,144.234136 108.087414,144.362988 C113.75949,141.084004 120.557098,138.940761 127.556085,137" id="Fill-13" fill="#FFFFFF"></path>
            <path d="M144.382979,231.103933 C133.314234,237.101843 122.981596,227.429081 116,222.043646 C116.086383,220.316151 118.573596,220.938895 120.319149,220.835608 C124.355085,214.751927 134.506319,216.959617 140.06383,220.231589 C140.978872,222.959943 142.709,224.890388 145,226.27178 C144.046085,227.150024 144.457021,229.364358 144.382979,231.103933" id="Fill-15" fill="#000000"></path>
            <path d="M192.893417,221.736397 C193.299671,223.958952 192.471514,224.98039 191.641478,226 C187.756087,225.516995 184.128595,224.783046 181,223.563656 C182.471028,219.952384 189.839939,218.639804 192.893417,221.736397" id="Fill-17" fill="#000000"></path>
            <path d="M342.020175,245.078713 C343.68264,244.459803 342.662062,247.652384 342.940443,249 C341.7648,248.926803 342.027537,246.811268 342.020175,245.078713" id="Fill-19" fill="#FFFFFF"></path>
            <path d="M239.20032,285 C232.96943,284.661424 231.757663,279.428829 228.716836,275.979322 C223.793915,276.860341 221.402447,273.958089 217,273.573808 C222.000005,265.727021 234.448218,265.407689 243.517049,269.965536 C245.638413,276.267984 240.140134,279.739742 239.20032,285" id="Fill-21" fill="#000000"></path>
            <path d="M37.0208392,279 C38.8569047,280.084571 40.8740873,278.830286 42,279.571429 C40.656249,280.433143 39.7263907,281.674857 38.8880245,283 C37.4403335,282.424 36.8808003,281.033143 37.0208392,279" id="Fill-23" fill="#FFFFFF"></path>
            <path d="M396,376 C398.10625,384.905217 399.8675,394.147043 401,404 C396.2025,396.705391 396.2775,386.516435 396,376" id="Fill-25" fill="#FFFFFF"></path>
            <path d="M380,400 C382.032981,400.987583 386.087503,405.024833 382.691799,407 C379.817631,406.3805 380.508077,402.6705 380,400" id="Fill-27" fill="#000000"></path>
            <path d="M55,482.510484 C54.8657673,487.75018 45.6348698,491.371913 46.0112008,483.149238 C49.6948107,483.469892 53.3526527,478.638999 55,482.510484" id="Fill-29" fill="#FFFFFF"></path>
            <path d="M156,485 C164.851195,485.533793 164.376692,498.301379 159.721596,503 C156.027912,499.454621 158.156665,490.082828 156,485" id="Fill-31" fill="#FFFFFF"></path>
            <path d="M151.576255,490.007371 C151.871952,492.513539 152.97112,494.223898 154,496.004422 C151.81863,501.818564 146.926906,504.732531 140.669403,505 C138.116593,498.265911 143.103449,489.713515 151.576255,490.007371" id="Fill-33" fill="#FFFFFF"></path>
            <path d="M140,493.611268 C134.321,494.871393 122.9294,500.561894 119,493.611268 C126.47,493.185909 134.9384,487.954663 140,493.611268" id="Fill-35" fill="#FFFFFF"></path>
            <path d="M446.628018,586 L446.025371,586 C445.332929,583.259167 440.399657,577.055778 444.820076,575 C447.61636,576.165389 447.096878,583.512778 446.628018,586" id="Fill-37" fill="#FFFFFF"></path>
            <path d="M382.898707,407.758333 C385.976332,405.691463 382.301601,401.466769 380.459052,400.433333 C380.919537,403.227821 380.293765,407.10946 382.898707,407.758333 L382.898707,407.758333 Z M382.898707,399.2125 C381.751459,396.302033 382.267446,384.807277 376.189655,385.783333 C378.940366,389.744937 379.847308,395.551831 382.898707,399.2125 L382.898707,399.2125 Z M243.838362,270.414583 C234.86897,265.788235 222.55725,266.112367 217.612069,274.077083 C221.966244,274.46714 224.331489,277.41301 229.200431,276.51875 C232.207916,280.0201 233.406397,285.331335 239.568966,285.675 C240.498474,280.335685 245.936466,276.81175 243.838362,270.414583 L243.838362,270.414583 Z M181.017241,224.022917 C184.065591,225.244971 187.600041,225.980523 191.385776,226.464583 C192.194522,225.442746 193.001438,224.419077 192.605603,222.191667 C189.630444,219.088308 182.450539,220.403756 181.017241,224.022917 L181.017241,224.022917 Z M145.032328,226.464583 C142.767718,225.06856 141.057519,223.117669 140.153017,220.360417 C134.659524,217.05379 124.625222,214.822717 120.635776,220.970833 C118.91033,221.075215 116.451767,220.445875 116.366379,222.191667 C123.267554,227.634142 133.48117,237.409354 144.422414,231.347917 C144.495603,229.589917 144.089401,227.352129 145.032328,226.464583 L145.032328,226.464583 Z M357.892241,144.058333 C361.075991,143.119512 364.536032,134.260535 360.331897,131.85 C359.159642,135.176771 355.42819,140.985496 357.892241,144.058333 L357.892241,144.058333 Z M363.381466,128.1875 C363.396103,125.935062 363.108834,123.984171 360.94181,123.914583 C359.657332,125.505329 360.057435,129.319213 363.381466,128.1875 L363.381466,128.1875 Z M349.963362,97.6666667 C343.986207,104.093133 347.50236,114.456177 353.012931,119.03125 C355.465394,115.991985 359.700026,114.736358 363.991379,113.5375 C363.141769,107.673227 362.037825,102.063498 359.112069,98.2770833 C354.753625,98.982725 355.670935,95.6400833 349.963362,97.6666667 L349.963362,97.6666667 Z M475.605603,586 C477.654304,582.046942 472.865871,582.681775 471.336207,578.675 C468.881304,572.241819 471.940631,565.671294 473.775862,560.3625 C469.294216,557.054652 472.73108,549.934142 469.506466,546.322917 C471.112978,533.633575 467.944476,523.609923 467.06681,512.75 C465.763425,508.539346 462.804733,507.137829 464.017241,501.7625 C463.687278,499.651069 460.374226,500.525185 459.747845,498.710417 C458.65061,495.064398 459.92106,494.137785 460.357759,490.775 C458.179147,488.666621 458.1578,492.160035 456.088362,491.995833 C455.194228,487.193685 452.00072,484.692198 446.939655,484.060417 C441.974957,472.845231 438.324013,460.371367 439.62069,445.604167 C439.127879,443.0453 435.648321,443.475644 435.351293,440.720833 C436.678466,437.369646 438.988209,435.000619 440.840517,432.175 C438.844879,430.916321 437.218849,429.28895 435.961207,427.291667 C438.303886,422.961371 437.439028,419.89769 434.741379,416.914583 C435.691015,413.591475 435.668448,409.296583 437.181034,406.5375 C429.92611,381.395658 445.577718,364.899148 453.648707,349.158333 C451.231009,348.118794 447.839888,348.05409 445.719828,346.716667 C428.482444,357.340358 420.44439,377.172185 410.954741,395.55 C406.593858,377.276567 415.205231,354.183894 412.784483,333.897917 C408.394323,330.938617 405.02394,337.852196 401.806034,337.560417 C401.146718,333.238056 403.924265,332.355394 403.635776,328.404167 C400.022647,326.029035 397.610437,330.091358 395.096983,330.845833 C391.680246,345.965854 395.334239,360.191004 396.926724,374.795833 C394.290677,368.481073 392.903123,360.9174 389.607759,355.2625 C389.635815,352.848912 390.950179,351.722694 391.4375,349.76875 C388.499545,344.77371 388.315961,337.022029 382.288793,335.11875 C378.565269,341.460369 387.136388,345.604487 387.168103,352.210417 C383.393957,352.146323 381.60447,351.129979 379.239224,348.547917 C379.701539,354.799804 380.656054,360.559085 384.728448,363.197917 C387.388892,359.751504 380.874403,357.513717 383.508621,354.041667 C387.388892,356.223906 382.985925,363.032494 390.217672,361.977083 C383.597668,369.084775 392.206601,376.858431 393.267241,385.172917 C392.131582,385.756475 391.228909,383.344719 390.827586,385.172917 C395.547099,390.439592 394.862776,403.614215 395.706897,410.810417 C397.848914,414.015104 400.430679,412.186906 402.415948,412.03125 C402.691019,414.949652 402.691019,414.606598 402.415948,417.525 C399.760994,418.049348 397.538468,417.675162 393.877155,418.745833 C387.081496,425.592877 393.877765,433.292673 393.267241,443.772917 C388.998455,438.25475 384.567431,427.154323 386.55819,419.35625 C385.933028,416.136912 381.391,414.867246 385.338362,412.03125 C384.814446,410.521079 381.092752,412.210712 380.459052,410.810417 C376.359821,398.972606 367.899707,386.274719 365.821121,371.74375 C364.329272,361.311729 362.631272,353.250567 356.672414,346.716667 C357.303675,342.35585 354.814616,336.562996 353.622845,332.066667 C355.84903,330.380696 355.689233,326.718196 354.232759,324.13125 C353.080631,322.232244 350.071927,322.191346 349.353448,319.858333 C349.134489,310.699642 346.167869,303.428358 349.353448,295.441667 C348.696571,293.250271 345.869011,293.231958 344.474138,291.779167 C346.044666,287.601475 342.252832,285.941142 342.034483,282.622917 C341.55997,275.412065 348.312935,268.720677 346.303879,260.647917 C342.047291,260.864615 342.177203,265.470819 340.814655,268.583333 C336.019513,262.311913 346.453918,258.29415 346.913793,251.491667 C349.900541,251.022256 350.467761,248.130712 353.012931,247.21875 C354.327295,247.734552 352.784213,251.110156 354.232759,251.491667 C357.917858,248.670321 355.541024,242.749279 356.0625,239.283333 C358.657073,238.72114 356.102144,243.312694 358.502155,242.945833 C360.869841,239.210694 363.225938,235.465788 363.991379,230.127083 C363.439407,227.746458 361.745677,232.150004 361.551724,230.127083 C366.315151,217.792394 370.551002,204.262508 371.920259,188.61875 C372.488088,182.134904 371.828162,174.575504 371.310345,167.864583 C370.49306,157.261646 369.189065,146.448725 367.040948,136.733333 C362.816075,138.068315 363.55956,142.578683 361.551724,145.889583 C360.364222,147.8478 357.482989,149.086946 356.0625,151.383333 C350.593403,160.224608 352.457909,175.514325 343.25431,180.072917 C334.824692,193.795083 334.675873,210.664558 331.665948,230.127083 C325.70831,268.65109 309.412634,298.483983 286.532328,321.079167 C262.068685,345.238237 229.06625,363.618494 187.726293,369.9125 C184.153418,377.97 184.029606,385.753423 183.456897,394.939583 C183.001291,402.237725 179.841328,410.456985 177.967672,418.745833 C176.153179,426.772202 175.15292,435.527408 173.088362,442.552083 C170.973791,449.748285 167.039847,456.6698 164.549569,463.30625 C161.831183,470.548844 160.630873,478.257185 155.400862,482.839583 C151.02656,481.909919 147.511017,482.303638 144.422414,484.060417 C142.121209,486.430054 147.943446,487.184529 145.642241,489.554167 C126.05303,491.31705 108.624134,483.352944 89.5301724,483.45 C84.5374181,483.475638 79.8093664,484.323506 74.8922414,482.839583 C71.9359892,486.934258 72.1275022,493.501121 71.2327586,499.320833 C70.3276466,505.208912 68.7241832,511.512685 70.012931,517.022917 C70.9778147,521.347719 80.1936121,517.414194 80.9913793,521.90625 C78.3040991,523.082523 73.1735043,521.813467 72.4525862,524.958333 C76.4889957,530.691367 79.7782608,522.589917 84.6508621,521.90625 C86.8178858,521.602262 89.561278,522.114402 92.5797414,521.90625 C113.030151,520.497408 134.222216,514.853496 148.081897,521.90625 C145.403155,543.845235 140.546412,563.605033 138.323276,586 L20,586 C28.9876897,564.880804 39.0921315,544.880502 46.8362069,522.516667 C48.2682845,522.321944 49.1252134,521.552208 51.1056034,521.90625 C48.9593168,518.764435 47.3479246,515.086675 45.0064655,512.139583 C47.8413448,510.703273 48.7434073,507.334383 51.7155172,506.035417 C51.3623772,500.691219 49.5552026,496.803475 47.4461207,493.216667 C49.9095625,492.222908 52.0320625,490.888537 55.9849138,491.385417 C57.0717802,487.182698 59.6669634,484.48954 60.8642241,480.397917 C59.3010151,478.503183 54.6357845,479.71364 54.1551724,476.735417 C56.1312931,470.573871 60.3275,466.634852 67.5732759,465.747917 C71.6127349,455.972094 69.4841358,449.941787 70.012931,441.33125 C71.0997974,423.645038 91.096431,422.502948 93.1896552,408.36875 C94.6528384,398.487935 88.7147177,391.362542 87.700431,380.9 C80.8328017,368.239958 70.7966703,358.751031 65.1336207,344.885417 C64.2522953,343.121923 62.2005453,342.530429 60.8642241,341.222917 C55.5213793,328.015331 48.6391121,313.913485 49.8857759,296.052083 C46.3055819,294.891071 44.0513405,290.05535 45.0064655,286.285417 C49.8833362,284.18131 55.0468664,286.720644 54.7650862,291.779167 C56.3697694,292.411558 58.5081272,292.509835 60.8642241,292.389583 C100.789181,311.235588 127.257,343.548604 162.109914,367.470833 C152.767254,352.20004 130.506011,344.570442 126.125,322.3 C127.033772,319.954169 129.513071,319.17955 129.784483,316.195833 C132.361369,317.208515 136.138565,318.735777 139.543103,315.585417 C149.703657,321.457625 173.229252,324.817358 182.237069,314.975 C181.611907,310.803413 177.154657,311.843563 173.698276,310.091667 C168.535966,307.47481 165.314401,301.71736 157.840517,302.15625 C155.750953,302.278944 153.835823,304.04549 151.741379,303.9875 C147.475642,303.86969 143.639284,299.129194 139.543103,301.545833 C138.71789,297.83389 135.628067,293.99681 133.443966,289.947917 C129.104429,287.372569 121.962338,287.602696 122.465517,280.18125 C126.820912,280.206277 130.477345,283.188162 135.273707,283.233333 C137.695675,283.255919 140.057261,282.093685 142.592672,282.0125 C150.920435,281.745137 160.028888,286.676083 167.599138,282.0125 C167.775403,278.377469 162.372787,280.325308 160.890086,278.35 C160.043526,275.116623 155.713748,270.979829 158.450431,267.972917 C159.336636,268.306815 161.602466,267.25995 161.5,268.583333 C164.325121,268.630946 161.632961,271.349742 162.109914,272.85625 C164.60995,276.661587 169.35508,278.220592 172.478448,281.402083 C175.190125,278.48124 178.863026,273.732808 176.747845,269.19375 C174.079472,263.468652 165.788914,266.670287 158.450431,266.141667 C153.796179,265.806548 147.429289,261.584906 141.372845,261.258333 C133.234155,260.819444 121.295703,265.118608 122.465517,256.375 C124.56789,254.450356 123.947608,258.950958 126.734914,258.20625 C128.127347,253.324137 122.460638,254.60174 119.415948,253.322917 C119.038412,253.164208 117.686843,251.0717 116.976293,250.88125 C111.857287,249.510254 107.725121,251.295112 106.607759,245.997917 C104.892681,247.4092 101.902274,246.187146 99.8987069,245.997917 C97.6218987,244.614102 97.082125,241.491821 92.5797414,242.335417 C91.5953405,240.878963 91.6075388,238.425088 90.75,236.841667 C87.8407112,236.970465 88.0432026,238.397008 85.2607759,237.452083 C82.0599483,235.365679 82.0629978,230.072146 75.5021552,231.347917 C73.7785388,226.358371 70.197125,223.228154 68.1831897,218.529167 C69.163931,212.426831 67.5683966,206.671823 71.8426724,202.658333 C83.349306,202.482533 92.9725259,201.472904 101.118534,203.879167 C98.794153,208.969431 100.110347,211.535623 102.948276,215.477083 C102.945226,217.711819 99.3705216,216.372565 99.8987069,219.139583 C103.418519,218.165358 109.245636,219.725583 112.706897,219.75 C111.776168,211.380577 113.232032,204.149581 118.196121,198.385417 C121.404877,194.659433 127.210037,193.390987 129.784483,189.839583 C132.723047,185.785196 132.951155,178.761742 135.273707,173.358333 C141.413099,159.076415 150.501425,144.877512 158.450431,131.239583 C158.380901,125.879515 159.420194,121.629794 162.719828,119.641667 C167.392377,119.974344 175.676836,120.990077 174.918103,127.577083 C174.626565,130.10726 170.078437,131.611327 169.428879,133.68125 C167.308819,140.436121 178.666634,156.830081 181.017241,161.15 C186.161254,170.602302 189.58592,177.86626 195.045259,185.566667 C196.565164,186.080027 198.312567,186.365702 200.534483,186.177083 C210.094272,195.302202 218.925213,202.705335 237.739224,204.489583 C241.170599,204.814935 245.146017,204.651954 248.717672,204.489583 C266.206341,203.694821 286.957438,202.415388 295.071121,194.722917 C288.513937,191.844802 282.469082,196.980848 275.553879,197.775 C243.258334,201.483892 210.859103,193.89214 196.265086,175.189583 C183.749045,159.150275 171.350108,112.21839 199.924569,104.38125 C199.879435,109.500204 200.69672,117.428906 207.853448,117.2 C208.460922,120.65679 206.026147,121.06821 206.633621,124.525 C211.52208,129.235585 220.547584,128.486604 227.980603,130.01875 C235.530116,131.574702 243.666366,134.653033 251.157328,131.239583 C254.610659,124.929096 257.204013,117.757921 258.476293,109.264583 C267.095595,109.184008 271.879149,112.941733 274.334052,119.03125 C278.44853,118.477602 283.649875,122.734648 285.3125,119.03125 C283.594373,111.869231 270.994164,108.817758 263.965517,103.770833 C257.138142,102.8723 252.594284,99.6871458 245.05819,99.4979167 C251.155498,96.9311146 257.971894,97.1191229 265.185345,97.6666667 C290.648636,99.5998562 318.009978,104.233529 320.6875,128.1875 C322.478817,144.220094 317.281131,157.510085 313.978448,171.527083 C309.049125,179.005908 302.882287,185.245587 296.900862,191.670833 C299.979707,195.172794 303.693472,191.37295 305.439655,189.839583 C311.424129,184.586338 316.826136,174.663404 320.6875,164.8125 C324.414683,155.303429 326.20844,143.621885 331.056034,135.5125 C332.804657,132.587383 336.828869,130.477783 337.765086,127.577083 C339.456377,122.336046 337.921834,115.156325 338.375,110.485417 C313.173362,100.32259 277.769086,89.9259729 245.05819,87.2895833 C236.050983,86.5637979 228.294709,87.2969083 220.661638,86.6791667 C217.46569,86.42035 211.983784,87.2242688 210.903017,83.0166667 C222.426119,77.2726458 242.270274,75.6214687 257.256466,71.41875 C257.887116,68.9776937 257.674256,66.6752021 257.256466,64.7041667 C243.480343,57.2027563 215.492009,60.1779271 201.75431,66.5354167 C200.614991,70.6850292 197.996631,73.3549917 197.484914,78.1333333 C199.165226,81.6804646 204.009162,80.4382667 207.243534,81.1854167 C206.443938,89.1580688 198.513838,91.4758208 190.775862,95.225 C178.505006,101.170458 167.660739,104.598558 151.741379,98.2770833 C149.143147,92.9426521 143.46119,90.6932667 141.982759,84.2375 C141.462502,82.3171292 138.43855,82.9012979 137.713362,81.1854167 C137.524289,78.4989729 138.731918,76.5950833 137.713362,73.25 C136.691147,69.8939292 133.452504,67.148275 131.614224,62.8729167 C128.425595,55.4563542 120.016103,52.6356188 110.877155,49.44375 C96.6368879,44.4706854 82.6082608,45.6304771 69.4030172,40.2875 C69.1846681,35.1166604 75.3216207,31.2045 76.7219828,25.6375 C86.3635,22.4682167 91.6703599,14.9607021 99.2887931,9.76666667 C97.4535625,5.79956875 99.6401034,1.93074792 101.728448,0 L586,0 L586,586 L475.605603,586 Z" id="Fill-39" fill="#FFFFFF"></path>
            <path d="M376,386.056504 C382.341364,385.115747 381.803,396.194791 383,399 C379.816273,395.471721 378.87,389.874835 376,386.056504" id="Fill-41" fill="#000000"></path>
            <path d="M45.7301294,482.839583 C45.3472158,490.697477 54.7395747,487.236415 54.8761553,482.229167 C53.1999936,478.529431 49.4781708,483.146012 45.7301294,482.839583 M38.4133087,283.233333 C39.2346218,281.817777 40.145566,280.491342 41.461984,279.570833 C40.3589733,278.779123 38.382822,280.118987 36.5841035,278.960417 C36.4469132,281.132279 36.995065,282.618033 38.4133087,283.233333 M107.923105,144.058333 C101.148949,143.930146 94.9595284,144.466092 89.6310537,146.5 C80.5216119,142.267981 64.8331288,143.568779 59.7540358,151.383333 C58.1467742,159.912075 57.2394884,174.369794 66.4611214,178.241667 C66.5342896,179.999667 66.1282061,182.237454 67.0708565,183.125 C101.995261,192.963696 136.422122,170.92216 127.434627,136.733333 C120.420235,138.664081 113.607665,140.796267 107.923105,144.058333 M225.601972,112.927083 C219.097928,116.988796 223.048401,128.355975 230.479852,126.35625 C228.360413,122.373892 229.294527,115.334567 225.601972,112.927083 M249.991374,112.316667 C251.801678,113.148054 254.410124,113.199329 255.47899,111.70625 C255.636301,106.352896 247.26342,106.361442 249.991374,112.316667 M74.9974123,68.9770833 C73.1560124,70.8944021 78.9777627,73.4325146 75.6071473,75.08125 C88.484142,78.2169604 107.948714,84.6715063 121.337277,85.4583333 C120.276947,81.6365146 117.514848,79.5183688 112.800986,79.3541667 C112.832692,74.4390917 106.240846,76.1549729 106.0939,71.41875 C96.1619259,71.2350146 86.8049317,64.6834125 74.9974123,68.9770833 M19.5115219,586 L0,586 L0,0 L101.21602,0 C99.128287,1.93074792 96.9423868,5.79956875 98.7770796,9.76666667 C91.1608789,14.9607021 85.8555742,22.4682167 76.2168824,25.6375 C74.8169307,31.2045 68.6817765,35.1166604 68.9000617,40.2875 C82.1014354,45.6304771 96.1259515,44.4706854 110.362046,49.44375 C119.498316,52.6356188 127.905343,55.4563542 131.093038,62.8729167 C132.930779,67.148275 136.168472,69.8939292 137.190388,73.25 C138.208646,76.5950833 137.00137,78.4989729 137.190388,81.1854167 C137.915363,82.9012979 140.93843,82.3171292 141.458534,84.2375 C142.936531,90.6932667 148.616823,92.9426521 151.214295,98.2770833 C167.128989,104.598558 177.970079,101.170458 190.237338,95.225 C197.973047,91.4758208 205.900822,89.1580688 206.700185,81.1854167 C203.46676,80.4382667 198.624244,81.6804646 196.944424,78.1333333 C197.455992,73.3549917 200.073584,70.6850292 201.212569,66.5354167 C214.946242,60.1779271 242.926374,57.2027563 256.69846,64.7041667 C257.116128,66.6752021 257.328926,68.9776937 256.69846,71.41875 C241.71666,75.6214687 221.87832,77.2726458 210.358595,83.0166667 C211.439046,87.2242688 216.919345,86.42035 220.114356,86.6791667 C227.745191,87.2969083 235.499191,86.5637979 244.503759,87.2895833 C277.205069,89.9259729 312.59897,100.32259 337.793223,110.485417 C337.34019,115.156325 338.874283,122.336046 337.183488,127.577083 C336.247544,130.477783 332.224512,132.587383 330.476402,135.5125 C325.630228,143.621885 323.836997,155.303429 320.110906,164.8125 C316.250673,174.663404 310.85086,184.586338 304.867529,189.839583 C303.121858,191.37295 299.409181,195.172794 296.331239,191.670833 C302.31091,185.245587 308.475942,179.005908 313.40382,171.527083 C316.705536,157.510085 321.902308,144.220094 320.110906,128.1875 C317.434169,104.233529 290.080845,99.5998563 264.625016,97.6666667 C257.413679,97.1191229 250.59928,96.9311146 244.503759,99.4979167 C252.037645,99.6871458 256.580171,102.8723 263.405545,103.770833 C270.432132,108.817758 283.028649,111.869231 284.746273,119.03125 C283.084135,122.734648 277.884314,118.477602 273.771041,119.03125 C271.316858,112.941733 266.534706,109.184008 257.91793,109.264583 C256.646023,117.757921 254.053429,124.929096 250.601109,131.239583 C243.112343,134.653033 234.978478,131.574702 227.431177,130.01875 C220.000336,128.486604 210.977476,129.235585 206.09045,124.525 C205.483154,121.06821 207.917216,120.65679 207.30992,117.2 C200.155289,117.428906 199.338244,109.500204 199.383364,104.38125 C170.817277,112.21839 183.212581,159.150275 195.724954,175.189583 C210.314694,193.89214 242.70443,201.483892 274.990512,197.775 C281.903688,196.980848 287.946772,191.844802 294.502033,194.722917 C286.390728,202.415388 265.645712,203.694821 248.162169,204.489583 C244.591561,204.651954 240.617307,204.814935 237.186938,204.489583 C218.378441,202.705335 209.550087,195.302202 199.993099,186.177083 C197.771835,186.365702 196.024944,186.080027 194.505484,185.566667 C189.047745,177.86626 185.624083,170.602302 180.481577,161.15 C178.131659,156.830081 166.777172,140.436121 168.896611,133.68125 C169.545979,131.611327 174.092774,130.10726 174.384227,127.577083 C175.142737,120.990077 166.860706,119.974344 162.189526,119.641667 C158.890859,121.629794 157.85187,125.879515 157.92138,131.239583 C149.974703,144.877512 140.889041,159.076415 134.751448,173.358333 C132.429577,178.761742 132.201536,185.785196 129.263833,189.839583 C126.690141,193.390987 120.886683,194.659433 117.678866,198.385417 C112.716233,204.149581 111.260795,211.380577 112.191251,219.75 C108.731004,219.725583 102.905596,218.165358 99.3868146,219.139583 C98.8587841,216.372565 102.432441,217.711819 102.43549,215.477083 C99.5983927,211.535623 98.2825844,208.969431 100.606285,203.879167 C92.4626633,201.472904 82.8422635,202.482533 71.3390019,202.658333 C67.0659786,206.671823 68.6610455,212.426831 67.6805915,218.529167 C69.6939367,223.228154 73.274301,226.358371 74.9974123,231.347917 C81.5563323,230.072146 81.5532836,235.365679 84.7531732,237.452083 C87.5347845,238.397008 87.3323525,236.970465 90.2407887,236.841667 C91.0980762,238.425088 91.0858815,240.878963 92.0699939,242.335417 C96.5710581,241.491821 97.1106736,244.614102 99.3868146,245.997917 C101.389794,246.187146 104.379325,247.4092 106.0939,245.997917 C107.210935,251.295112 111.34189,249.510254 116.459396,250.88125 C117.169738,251.0717 118.520911,253.164208 118.898337,253.322917 C121.942134,254.60174 127.607182,253.324137 126.215157,258.20625 C123.428668,258.950958 124.048769,254.450356 121.947012,256.375 C120.77754,265.118608 132.712494,260.819444 140.848799,261.258333 C146.903468,261.584906 153.268492,265.806548 157.92138,266.141667 C165.257713,266.670287 173.545841,263.468652 176.213432,269.19375 C178.327993,273.732808 174.656169,278.48124 171.945287,281.402083 C168.822833,278.220592 164.079095,276.661587 161.579791,272.85625 C161.102978,271.349742 163.794348,268.630946 160.970056,268.583333 C161.072491,267.25995 158.807325,268.306815 157.92138,267.972917 C155.185499,270.979829 159.514008,275.116623 160.360321,278.35 C161.842586,280.325308 167.24362,278.377469 167.067406,282.0125 C159.499375,286.676083 150.393591,281.745137 142.068269,282.0125 C139.5336,282.093685 137.172706,283.255919 134.751448,283.233333 C129.956492,283.188162 126.30113,280.206277 121.947012,280.18125 C121.44398,287.602696 128.583978,287.372569 132.922243,289.947917 C135.105704,293.99681 138.194622,297.83389 139.019593,301.545833 C143.114574,299.129194 146.949808,303.86969 151.214295,303.9875 C153.308125,304.04549 155.222693,302.278944 157.311645,302.15625 C164.783339,301.71736 168.003959,307.47481 173.164757,310.091667 C176.620125,311.843563 181.076069,310.803413 181.701048,314.975 C172.69587,324.817358 149.17717,321.457625 139.019593,315.585417 C135.616052,318.735777 131.839963,317.208515 129.263833,316.195833 C128.9925,319.17955 126.513927,319.954169 125.605422,322.3 C129.985149,344.570442 152.239869,352.20004 161.579791,367.470833 C126.73709,343.548604 100.277028,311.235588 60.3637708,292.389583 C58.0083643,292.509835 55.8706332,292.411558 54.2664203,291.779167 C54.5481178,286.720644 49.3861008,284.18131 44.5106593,286.285417 C43.5558142,290.05535 45.809395,294.891071 49.3885398,296.052083 C48.1422413,313.913485 55.0224917,328.015331 60.3637708,341.222917 C61.6997004,342.530429 63.7508491,343.121923 64.6319163,344.885417 C70.2933063,358.751031 80.3264967,368.239958 87.1921134,380.9 C88.2061028,391.362542 94.1424834,398.487935 92.679729,408.36875 C90.5871182,422.502948 70.5963446,423.645038 69.5097967,441.33125 C68.9811564,449.941787 71.1091318,455.972094 67.0708565,465.747917 C59.827204,466.634852 55.6322268,470.573871 53.6566852,476.735417 C54.1371564,479.71364 58.8016296,478.503183 60.3637708,480.397917 C59.1668609,484.48954 56.5724382,487.182698 55.4858904,491.385417 C51.5341975,490.888537 49.4123194,492.222908 46.9495995,493.216667 C49.0580634,496.803475 50.8647084,500.691219 51.217745,506.035417 C48.246506,507.334383 47.3447079,510.703273 44.5106593,512.139583 C46.8514322,515.086675 48.4623522,518.764435 50.6080099,521.90625 C48.6282002,521.552208 47.7715224,522.321944 46.3398645,522.516667 C38.5980584,544.880502 28.4965777,564.880804 19.5115219,586" id="Fill-43" fill="#000000"></path>
            <path d="M118.937067,493.271739 C122.935553,499.651687 134.52744,494.428402 140.306288,493.271739 C135.155695,488.079567 126.538404,492.881304 118.937067,493.271739 L118.937067,493.271739 Z M140.306288,505.472826 C146.611429,505.200742 151.540392,502.236488 153.738369,496.322011 C152.701657,494.51076 151.594121,492.770885 151.296173,490.221467 C142.758864,489.922541 137.734044,498.622526 140.306288,505.472826 L140.306288,505.472826 Z M159.233312,503.032609 C163.815483,498.414497 164.282554,485.865679 155.570017,485.341033 C157.692896,490.336768 155.597492,499.547978 159.233312,503.032609 L159.233312,503.032609 Z M401.010783,404.203804 C399.904468,394.328245 398.18394,385.066399 396.12639,376.141304 C396.397473,386.681213 396.324208,396.892913 401.010783,404.203804 L401.010783,404.203804 Z M343.008612,248.639946 C342.63923,247.382014 343.993428,244.401898 341.787514,244.97962 C341.797282,246.596874 341.448659,248.57162 343.008612,248.639946 L343.008612,248.639946 Z M137.864091,586 C140.089543,563.618326 144.951346,543.870257 147.632878,521.944293 C133.758758,514.895726 112.544617,520.536288 92.0729033,521.944293 C89.0512955,522.152322 86.3050453,521.640486 84.1357641,521.944293 C79.2580868,522.627554 75.9653952,530.724196 71.9247808,524.994565 C72.6464499,521.851565 77.7823895,523.119868 80.4724691,521.944293 C79.6738708,517.454904 70.4484729,521.386094 69.4825841,517.063859 C68.1924937,511.556898 69.7976274,505.256867 70.7036824,499.372283 C71.599358,493.556024 71.4076456,486.99306 74.3669774,482.900815 C79.2892248,484.383857 84.022202,483.536492 89.0201575,483.51087 C108.13401,483.413871 125.581063,491.37325 145.190681,489.611413 C147.494283,487.243182 141.665981,486.489155 143.969583,484.120924 C147.061404,482.365188 150.580609,481.971702 154.959468,482.900815 C160.194927,478.321137 161.396488,470.617371 164.117705,463.379076 C166.610578,456.746565 170.54862,449.829159 172.665394,442.637228 C174.732103,435.616723 175.733403,426.866713 177.549787,418.845109 C179.425394,410.561181 182.588649,402.346799 183.04473,395.052989 C183.618035,385.872281 183.741977,378.093478 187.318574,370.040761 C228.701596,363.75049 261.738412,345.381144 286.227539,321.236413 C309.131681,298.654641 325.444333,268.839455 331.408178,230.338315 C334.421238,210.887342 334.570212,194.02788 343.008612,180.313859 C352.221799,175.757973 350.35535,160.477332 355.830144,151.641304 C357.252113,149.34628 360.136348,148.10787 361.325087,146.150815 C363.335015,142.84188 362.590755,138.334189 366.82003,137 C368.970384,146.709625 370.275738,157.516128 371.093874,168.112772 C371.61223,174.819709 372.272844,182.374622 371.704423,188.85462 C370.33374,204.489092 366.093476,218.010947 361.325087,230.338315 C361.519242,232.360035 363.214737,227.959103 363.767284,230.338315 C363.001044,235.673851 360.642493,239.416534 358.272341,243.149457 C355.86983,243.516099 358.427421,238.92727 355.830144,239.48913 C355.308125,242.953019 357.687435,248.870546 353.998497,251.690217 C352.548443,251.308933 354.093132,247.935333 352.777399,247.419837 C350.229577,248.331258 349.661766,251.221086 346.671907,251.690217 C346.211553,258.488663 335.766278,262.504041 340.566415,268.771739 C341.930382,265.661072 341.800335,261.057602 346.061358,260.841033 C348.072507,268.909001 341.312506,275.596417 341.787514,282.802989 C342.00609,286.119245 345.801874,287.778592 344.22971,291.953804 C345.626036,293.405734 348.456542,293.424035 349.114104,295.61413 C345.925205,303.596082 348.894916,310.863049 349.114104,320.016304 C349.833331,322.347932 352.84517,322.388806 353.998497,324.286685 C355.456488,326.872095 355.616452,330.532421 353.387948,332.217391 C354.580961,336.711052 357.072612,342.500467 356.440694,346.858696 C362.405759,353.388717 364.105528,361.445095 365.598931,371.870924 C367.679683,386.393268 376.14861,399.083618 380.252111,410.914402 C380.886472,412.313867 384.612043,410.625236 385.136505,412.134511 C381.18503,414.968823 385.73179,416.237736 386.357603,419.455163 C384.36477,427.248607 388.80041,438.342446 393.073644,443.857337 C393.684804,433.383314 386.881454,425.688088 393.684193,418.845109 C397.34932,417.775073 399.574161,418.149037 402.231881,417.625 C402.507239,414.70833 402.507239,415.051181 402.231881,412.134511 C400.244544,412.290075 397.660089,414.117188 395.51584,410.914402 C394.67084,403.722471 395.355877,390.555668 390.631447,385.29212 C391.033188,383.465007 391.936801,385.875332 393.073644,385.29212 C392.011899,376.982569 383.393997,369.213527 390.020898,362.110054 C382.781616,363.164838 387.189171,356.360292 383.304857,354.179348 C380.667895,357.649337 387.189171,359.885796 384.525955,363.330163 C380.449319,360.692898 379.493809,354.937035 379.031013,348.688859 C381.398723,351.269389 383.190074,352.285129 386.968152,352.349185 C386.936404,345.747177 378.356356,341.605518 382.083759,335.267663 C388.117206,337.169813 388.300981,344.916893 391.241996,349.908967 C390.754167,351.861751 389.438434,352.987302 389.410349,355.399457 C392.709146,361.051 394.098145,368.610183 396.736939,374.921196 C395.142795,360.325035 391.484995,346.108329 394.905291,330.997283 C397.421364,330.243255 399.836086,326.183344 403.45298,328.557065 C403.741769,332.505947 400.961329,333.388086 401.621332,337.70788 C404.84259,337.999486 408.216484,331.090011 412.611217,334.047554 C415.034487,354.32149 406.414143,377.400457 410.77957,395.663043 C420.279104,377.296137 428.325532,357.476082 445.580872,346.858696 C447.703141,348.195325 451.097795,348.25999 453.518012,349.298913 C445.438614,365.030385 429.770702,381.517103 437.033184,406.644022 C435.519022,409.401467 435.541612,413.69381 434.590987,417.014946 C437.291446,419.996281 438.157205,423.058144 435.812086,427.38587 C437.071038,429.381967 438.698762,431.008372 440.696479,432.266304 C438.842241,435.090246 436.530091,437.457867 435.201536,440.807065 C435.498874,443.56024 438.982057,443.130152 439.475381,445.6875 C438.177353,460.445935 441.8321,472.912395 446.801971,484.120924 C451.868308,484.75233 455.065143,487.252333 455.960208,492.05163 C458.031802,492.215735 458.053171,488.724394 460.234052,490.831522 C459.796899,494.192311 458.525125,495.118374 459.623503,498.762228 C460.250537,500.57592 463.56704,499.702322 463.897347,501.8125 C462.683576,507.184639 465.64535,508.585323 466.950093,512.793478 C467.828674,523.646955 471.000476,533.664658 469.39229,546.346467 C472.620263,549.955549 469.179819,557.071833 473.666134,560.377717 C471.828992,565.68336 468.766477,572.249985 471.223937,578.679348 C472.755195,582.683745 477.548616,582.049288 475.497782,586 L446.801971,586 C447.276978,583.517079 447.803271,576.182395 444.970323,575.019022 C440.491945,577.071245 445.489901,583.263906 446.191422,586 L137.864091,586 Z" id="Fill-45" fill="#000000"></path>
        </g>
    </g>
</svg>